<?xml version="1.0" encoding="UTF-8"?>
<svg id="_레이어_1" data-name="레이어_1" xmlns="http://www.w3.org/2000/svg" version="1.1" viewBox="0 0 345 96.56">
  <!-- Generator: Adobe Illustrator 29.7.1, SVG Export Plug-In . SVG Version: 2.1.1 Build 8)  -->
  <defs>
    <style>
      .st0 {
        fill: #555eff;
      }

      .st1, .st2 {
        fill: #1e1e1e;
      }

      .st2 {
        font-family: Arboria-Book, Arboria;
        font-size: 13.48px;
        letter-spacing: .06em;
      }
    </style>
  </defs>
  <g>
    <g>
      <path class="st0" d="M37.24,6.81V.21l-.65-.06c-1-.1-2.05-.14-3.11-.14-9.2,0-17.17,3.29-23.7,9.77h0C3.24,16.3-.05,24.31,0,33.56v36.28h6.6v-36.28c0-7.55,2.57-13.79,7.85-19.07,5.29-5.24,11.7-7.9,19.08-7.9,1.01,0,1.96.05,2.93.14l.79.08Z"/>
      <path class="st1" d="M105.68,27.16l-.23-.9c-1.47-5.8-4.58-11.09-9.23-15.75C89.36,3.66,80.98.19,71.3.19s-18.06,3.48-24.92,10.33c-6.84,6.84-10.33,15.22-10.38,24.92,0,9.68,3.48,18.06,10.33,24.92,6.86,6.86,15.24,10.33,24.92,10.33s18.06-3.48,24.92-10.33c4.36-4.36,7.37-9.35,8.94-14.83l.26-.92h-6.58l-.17.49c-1.37,3.98-3.69,7.62-6.9,10.83-5.66,5.61-12.55,8.46-20.48,8.46s-14.82-2.85-20.48-8.45c-5.61-5.66-8.46-12.55-8.46-20.48,0-2.89.36-5.64,1.08-8.18l62.28-.09ZM71.25,6.5c7.93,0,14.82,2.85,20.48,8.46,1.93,1.93,3.53,4.02,4.78,6.22h-50.53c1.25-2.2,2.86-4.29,4.78-6.22,5.66-5.61,12.55-8.46,20.48-8.46Z"/>
      <polygon class="st1" points="173.52 1.22 166.61 1.22 136.93 58.78 107.52 1.22 100.42 1.22 136.92 72.72 172.99 2.27 173.52 1.22"/>
      <path class="st1" d="M238.15,27.16l-.23-.9c-1.47-5.8-4.58-11.09-9.23-15.75C221.84,3.66,213.45.19,203.77.19s-18.06,3.48-24.92,10.33c-6.84,6.84-10.33,15.22-10.38,24.92,0,9.68,3.48,18.06,10.33,24.92,6.86,6.86,15.24,10.33,24.92,10.33s18.06-3.48,24.92-10.33c4.36-4.36,7.37-9.35,8.94-14.83l.26-.92h-6.58l-.17.49c-1.37,3.98-3.69,7.62-6.9,10.83-5.66,5.61-12.55,8.46-20.48,8.46s-14.82-2.85-20.48-8.45c-5.61-5.66-8.46-12.55-8.46-20.48,0-2.89.36-5.64,1.08-8.18l62.28-.09ZM203.72,6.5c7.93,0,14.82,2.85,20.48,8.46,1.93,1.93,3.53,4.02,4.78,6.22h-50.53c1.25-2.2,2.86-4.29,4.78-6.22,5.66-5.61,12.55-8.46,20.48-8.46Z"/>
      <path class="st1" d="M277.75,0c-9.2,0-17.17,3.29-23.7,9.77h0c-6.53,6.53-9.82,14.54-9.77,23.8v36.28h6.6v-36.28c0-7.55,2.57-13.79,7.85-19.07,5.29-5.24,11.7-7.9,19.08-7.9,1.01,0,1.96.05,2.93.14l.79.08V.21l-.65-.06c-1-.1-2.05-.14-3.11-.14Z"/>
      <path class="st1" d="M338.55.4l-.05,37.92c-.09,6.66-2.38,12.5-6.77,17.35-4.59,4.59-9.85,6.91-15.65,6.91-6.19,0-11.49-2.53-16.21-7.75-4.41-6.06-6.58-12.21-6.45-18.28l.05-36.09h-6.36v36.14c.05,8.83,2.91,16.54,8.52,22.92,5.63,6.35,12.51,9.57,20.45,9.57,4.84,0,9.46-1.31,13.74-3.91,3.47-2.19,6.4-4.99,8.74-8.33l.09,7.14c-.14,7.06-2.42,13.13-6.81,18.05-4.54,5.32-9.71,7.9-15.8,7.9-4.81,0-9.23-1.78-13.17-5.32-3.89-3.21-6.65-7.52-8.2-12.81l-.36-.85h-6.61l.52,1.44c1.67,7.02,5.15,12.82,10.34,17.25,5.14,4.47,11.02,6.74,17.48,6.74,7.86,0,14.71-3.2,20.36-9.52,5.62-6.34,8.52-14.03,8.62-22.87V.46l-6.45-.06Z"/>
    </g>
    <circle class="st0" cx="303.62" cy="5.24" r="4.85"/>
    <circle class="st0" cx="320.07" cy="5.24" r="4.85"/>
  </g>
  <text class="st2" transform="translate(176.46 96.43)"><tspan x="0" y="0">DESIGN STUDIO</tspan></text>
</svg>